<svg width="149" height="36" viewBox="0 0 149 36" fill="none" xmlns="http://www.w3.org/2000/svg">
<path d="M5.44178 11.96V16.16H11.0818V18.824H5.44178V23.264H11.8018V26H2.08178V9.224H11.8018V11.96H5.44178ZM31.3672 12.512C32.9992 12.512 34.3112 13.016 35.3032 14.024C36.3112 15.016 36.8152 16.408 36.8152 18.2V26H33.4552V18.656C33.4552 17.616 33.1912 16.824 32.6632 16.28C32.1352 15.72 31.4152 15.44 30.5032 15.44C29.5912 15.44 28.8632 15.72 28.3192 16.28C27.7912 16.824 27.5272 17.616 27.5272 18.656V26H24.1672V18.656C24.1672 17.616 23.9032 16.824 23.3752 16.28C22.8472 15.72 22.1272 15.44 21.2152 15.44C20.2872 15.44 19.5512 15.72 19.0072 16.28C18.4792 16.824 18.2152 17.616 18.2152 18.656V26H14.8552V12.704H18.2152V14.312C18.6472 13.752 19.1992 13.312 19.8712 12.992C20.5592 12.672 21.3112 12.512 22.1272 12.512C23.1672 12.512 24.0952 12.736 24.9112 13.184C25.7272 13.616 26.3592 14.24 26.8072 15.056C27.2392 14.288 27.8632 13.672 28.6792 13.208C29.5112 12.744 30.4072 12.512 31.3672 12.512ZM43.3637 14.624C43.7957 14.016 44.3877 13.512 45.1397 13.112C45.9077 12.696 46.7797 12.488 47.7557 12.488C48.8917 12.488 49.9157 12.768 50.8277 13.328C51.7557 13.888 52.4837 14.688 53.0117 15.728C53.5557 16.752 53.8277 17.944 53.8277 19.304C53.8277 20.664 53.5557 21.872 53.0117 22.928C52.4837 23.968 51.7557 24.776 50.8277 25.352C49.9157 25.928 48.8917 26.216 47.7557 26.216C46.7797 26.216 45.9157 26.016 45.1637 25.616C44.4277 25.216 43.8277 24.712 43.3637 24.104V32.336H40.0037V12.704H43.3637V14.624ZM50.3957 19.304C50.3957 18.504 50.2277 17.816 49.8917 17.24C49.5717 16.648 49.1397 16.2 48.5957 15.896C48.0677 15.592 47.4917 15.44 46.8677 15.44C46.2597 15.44 45.6837 15.6 45.1397 15.92C44.6117 16.224 44.1797 16.672 43.8437 17.264C43.5237 17.856 43.3637 18.552 43.3637 19.352C43.3637 20.152 43.5237 20.848 43.8437 21.44C44.1797 22.032 44.6117 22.488 45.1397 22.808C45.6837 23.112 46.2597 23.264 46.8677 23.264C47.4917 23.264 48.0677 23.104 48.5957 22.784C49.1397 22.464 49.5717 22.008 49.8917 21.416C50.2277 20.824 50.3957 20.12 50.3957 19.304ZM59.6293 8.24V26H56.2693V8.24H59.6293ZM68.853 26.216C67.573 26.216 66.421 25.936 65.397 25.376C64.373 24.8 63.565 23.992 62.973 22.952C62.397 21.912 62.109 20.712 62.109 19.352C62.109 17.992 62.405 16.792 62.997 15.752C63.605 14.712 64.429 13.912 65.469 13.352C66.509 12.776 67.669 12.488 68.949 12.488C70.229 12.488 71.389 12.776 72.429 13.352C73.469 13.912 74.285 14.712 74.877 15.752C75.485 16.792 75.789 17.992 75.789 19.352C75.789 20.712 75.477 21.912 74.853 22.952C74.245 23.992 73.413 24.8 72.357 25.376C71.317 25.936 70.149 26.216 68.853 26.216ZM68.853 23.288C69.461 23.288 70.029 23.144 70.557 22.856C71.101 22.552 71.533 22.104 71.853 21.512C72.173 20.92 72.333 20.2 72.333 19.352C72.333 18.088 71.997 17.12 71.325 16.448C70.669 15.76 69.861 15.416 68.901 15.416C67.941 15.416 67.133 15.76 66.477 16.448C65.837 17.12 65.517 18.088 65.517 19.352C65.517 20.616 65.829 21.592 66.453 22.28C67.093 22.952 67.893 23.288 68.853 23.288ZM90.9737 12.704L82.7417 32.288H79.1657L82.0457 25.664L76.7177 12.704H80.4857L83.9177 21.992L87.3977 12.704H90.9737ZM105.145 19.064C105.145 19.544 105.113 19.976 105.049 20.36H95.3289C95.4089 21.32 95.7449 22.072 96.3369 22.616C96.9289 23.16 97.6569 23.432 98.5209 23.432C99.7689 23.432 100.657 22.896 101.185 21.824H104.809C104.425 23.104 103.689 24.16 102.601 24.992C101.513 25.808 100.177 26.216 98.5929 26.216C97.3129 26.216 96.1609 25.936 95.1369 25.376C94.1289 24.8 93.3369 23.992 92.7609 22.952C92.2009 21.912 91.9209 20.712 91.9209 19.352C91.9209 17.976 92.2009 16.768 92.7609 15.728C93.3209 14.688 94.1049 13.888 95.1129 13.328C96.1209 12.768 97.2809 12.488 98.5929 12.488C99.8569 12.488 100.985 12.76 101.977 13.304C102.985 13.848 103.761 14.624 104.305 15.632C104.865 16.624 105.145 17.768 105.145 19.064ZM101.665 18.104C101.649 17.24 101.337 16.552 100.729 16.04C100.121 15.512 99.3769 15.248 98.4969 15.248C97.6649 15.248 96.9609 15.504 96.3849 16.016C95.8249 16.512 95.4809 17.208 95.3529 18.104H101.665Z" fill="#334975"/>
<path d="M125.861 9.248V26H122.501V15.104L118.013 26H115.469L110.957 15.104V26H107.597V9.248H111.413L116.741 21.704L122.069 9.248H125.861ZM141.543 19.064C141.543 19.544 141.511 19.976 141.447 20.36H131.727C131.807 21.32 132.143 22.072 132.735 22.616C133.327 23.16 134.055 23.432 134.919 23.432C136.167 23.432 137.055 22.896 137.583 21.824H141.207C140.823 23.104 140.087 24.16 138.999 24.992C137.911 25.808 136.575 26.216 134.991 26.216C133.711 26.216 132.559 25.936 131.535 25.376C130.527 24.8 129.735 23.992 129.159 22.952C128.599 21.912 128.319 20.712 128.319 19.352C128.319 17.976 128.599 16.768 129.159 15.728C129.719 14.688 130.503 13.888 131.511 13.328C132.519 12.768 133.679 12.488 134.991 12.488C136.255 12.488 137.383 12.76 138.375 13.304C139.383 13.848 140.159 14.624 140.703 15.632C141.263 16.624 141.543 17.768 141.543 19.064ZM138.063 18.104C138.047 17.24 137.735 16.552 137.127 16.04C136.519 15.512 135.775 15.248 134.895 15.248C134.063 15.248 133.359 15.504 132.783 16.016C132.223 16.512 131.879 17.208 131.751 18.104H138.063ZM145.484 26.168C144.876 26.168 144.372 25.984 143.972 25.616C143.588 25.232 143.396 24.76 143.396 24.2C143.396 23.64 143.588 23.176 143.972 22.808C144.372 22.424 144.876 22.232 145.484 22.232C146.076 22.232 146.564 22.424 146.948 22.808C147.332 23.176 147.524 23.64 147.524 24.2C147.524 24.76 147.332 25.232 146.948 25.616C146.564 25.984 146.076 26.168 145.484 26.168Z" fill="#41AFFF"/>
<path d="M107.5 29.5C116 34 131 34 139.5 29.5" stroke="#334975" stroke-width="1.5" stroke-linecap="round"/>
</svg>
