<svg width="20" height="20" viewBox="0 0 20 20" fill="none" xmlns="http://www.w3.org/2000/svg">
<path d="M12.6154 3.93563C12.9236 3.6521 13.2712 3.41747 13.6384 3.24512C14.0055 3.07278 14.3851 2.96611 14.7553 2.93119C15.1255 2.89627 15.4792 2.93379 15.7962 3.0416C16.1131 3.14942 16.3871 3.32543 16.6025 3.55957C16.8179 3.79371 16.9705 4.08141 17.0516 4.40623C17.1327 4.73105 17.1406 5.08664 17.075 5.45268C17.0094 5.81873 16.8715 6.18807 16.6692 6.53962C16.4669 6.89117 16.2041 7.21804 15.8959 7.50157L14.2557 5.7186L12.6154 3.93563Z" fill="#1B9FFF"/>
<path d="M17.181 2.926C16.9075 2.63837 16.5792 2.40839 16.2154 2.24959C15.8516 2.09079 15.4598 2.00639 15.0629 2.00136C14.666 1.99633 14.2721 2.07077 13.9044 2.22029C13.5368 2.36981 13.2027 2.5914 12.922 2.872L3.547 12.247C3.2191 12.5748 2.99153 12.9894 2.891 13.442L2.014 17.392C1.99583 17.4741 1.99868 17.5595 2.02227 17.6402C2.04585 17.7209 2.08942 17.7944 2.14894 17.8538C2.20846 17.9132 2.282 17.9567 2.36277 17.9801C2.44353 18.0036 2.52891 18.0063 2.611 17.988L6.537 17.115C7.00443 17.0109 7.4325 16.7757 7.771 16.437L17.129 7.079C17.6775 6.53024 17.9899 5.7889 17.9996 5.01308C18.0094 4.23725 17.7156 3.48832 17.181 2.926ZM13.629 3.58C14.0017 3.22191 14.5 3.02422 15.0169 3.02936C15.5337 3.0345 16.028 3.24205 16.3935 3.60748C16.7591 3.9729 16.9668 4.46707 16.9721 4.98393C16.9775 5.50078 16.78 5.99913 16.422 6.372L15.751 7.043L12.958 4.251L13.629 3.58ZM12.251 4.958L15.044 7.751L7.064 15.731C6.85982 15.935 6.60174 16.0765 6.32 16.139L3.16 16.841L3.868 13.659C3.9269 13.3918 4.06121 13.1471 4.255 12.954L12.251 4.958Z" fill="black"/>
</svg>
